<?xml version="1.0" encoding="utf-8"?>
<!-- Generator: Adobe Illustrator 22.1.0, SVG Export Plug-In . SVG Version: 6.00 Build 0)  -->
<svg version="1.1" id="Layer_1" xmlns="http://www.w3.org/2000/svg" xmlns:xlink="http://www.w3.org/1999/xlink" x="0px" y="0px"
	 viewBox="0 0 88.6 89.6" style="enable-background:new 0 0 88.6 89.6;" xml:space="preserve">
<style type="text/css">
	.st0{fill:#1898AC;}
	.st1{fill:#120342;}
	.st2{fill:#80C6D0;}
</style>
<title>CORE Banner</title>
<polygon class="st0" points="66.5,51.2 44.3,64 44.3,89.6 66.5,76.8 "/>
<polygon class="st1" points="22.2,51.2 44.3,64 44.3,89.6 22.2,76.8 "/>
<polygon class="st0" points="44.3,12.8 66.5,25.6 88.6,12.8 66.5,0 "/>
<polygon class="st1" points="66.5,51.2 66.5,25.6 88.6,12.8 88.6,38.4 "/>
<polygon class="st0" points="44.3,12.8 22.2,0 0,12.8 22.2,25.6 "/>
<polygon class="st1" points="22.2,51.2 0,38.4 0,12.8 22.2,25.6 "/>
<polygon class="st2" points="28.1,29 28.1,47.7 44.3,57.1 60.5,47.7 60.5,29 44.3,19.7 "/>
<polygon class="st0" points="28.1,47.7 44.3,57.1 60.5,47.7 60.5,33.7 44.3,43 28.1,33.7 "/>
</svg>
